<svg width="432" height="421" viewBox="0 0 432 421" fill="none" xmlns="http://www.w3.org/2000/svg">
<g clip-path="url(#clip0_213_373)">
<path d="M106.714 419.025C115.186 418.878 123.694 418.695 132.016 417.253C133.023 417.068 134.255 416.698 134.441 415.7C134.702 414.371 132.986 413.593 131.605 413.373C127.127 412.707 122.537 412.56 118.021 412.449C88.2049 411.636 58.3883 410.823 28.5717 411.081C22.8621 411.118 17.1524 411.229 11.4802 411.969C8.68137 412.337 2.97187 412.522 1.06869 414.962C-0.75987 417.289 1.4791 418.657 3.68084 419.323C10.6219 421.502 19.9513 419.988 27.1535 419.988C44.1329 419.988 61.1497 419.766 78.1292 419.508C87.6452 419.395 97.1984 419.21 106.714 419.025Z" fill="url(#paint0_linear_213_373)"/>
<path d="M106.725 419.025C115.196 418.878 123.705 418.695 132.027 417.253C133.034 417.068 134.265 416.698 134.452 415.7C134.713 414.371 132.997 413.593 131.616 413.373C127.138 412.707 122.548 412.56 118.032 412.449C88.2158 411.636 58.3992 410.823 28.5826 411.081C22.873 411.118 17.1633 411.229 11.491 411.969C8.69222 412.337 2.98275 412.522 1.07955 414.962C-0.749008 417.289 1.48998 418.657 3.6917 419.323C10.6328 421.502 19.9621 419.988 27.1644 419.988C44.1438 419.988 61.1606 419.766 78.1401 419.508C87.6561 419.395 97.2093 419.21 106.725 419.025Z" fill="url(#paint1_linear_213_373)"/>
<path d="M75.3063 84.0393C74.7092 78.8288 68.1413 74.6902 63.1407 76.316C58.0656 77.9789 55.7147 83.5219 52.8411 87.9563C50.5648 91.4669 47.6541 94.571 44.2956 97.0468C42.7282 98.2295 40.8249 99.7075 41.1609 101.629C41.31 102.405 41.7952 103.107 42.2803 103.736C44.2582 106.322 46.2732 108.872 48.8482 110.867C51.4231 112.863 54.5952 114.23 57.8791 114.008C63.8871 113.639 68.3652 108.244 70.5296 102.701C72.3955 97.7859 75.9034 89.4715 75.3063 84.0393Z" fill="#264C84"/>
<path d="M49.4651 179.315C49.4651 179.315 25.2833 375.464 25.2087 404.547L39.6506 404.953C39.6506 404.953 77.4157 246.535 86.2973 237.813C86.2973 237.813 89.9919 237.147 91.4099 237.813C92.8278 238.478 90.5887 399.336 88.2004 410.127H100.217C100.217 410.127 132.123 221.96 130.854 180.461C130.854 180.461 124.1 159.619 95.776 161.504C67.4519 163.388 52.3011 158.621 49.4651 179.315Z" fill="#998675"/>
<path d="M133.733 185.736C131.83 159.499 123.993 106.693 116.231 82.1188C115.821 80.8255 115.373 79.4952 114.552 78.5344C113.134 76.8715 111.007 76.7236 109.066 76.6866C104.252 76.6128 91.6388 77.2411 86.8623 77.6474C84.3247 77.8693 72.383 77.1302 70.1439 78.5714C67.3079 80.3821 65.4046 83.7449 63.7253 87.0706C55.2543 103.884 59.3592 123.802 54.8065 142.723C52.4928 152.293 44.3202 187.51 44.4695 196.231C45.3279 198.596 46.0743 201.072 46.5594 203.548C51.5226 210.421 64.6956 206.652 71.3382 211.308C76.4134 214.856 82.0856 216.556 87.8697 217.627C89.0638 217.516 90.2208 217.405 91.3775 217.258C98.0947 216.408 112.425 214.856 118.47 211.234C124.515 207.613 130.15 213.488 132.501 205.802C134.405 199.446 134.218 192.462 133.733 185.736Z" fill="#264C84"/>
<path d="M115.341 28.2748C113.997 25.3186 110.974 23.397 107.84 22.5101C104.705 21.6232 101.384 21.5862 98.1001 21.4384C94.443 21.2906 90.7484 20.958 87.0913 21.3275C83.4342 21.6601 79.7399 22.7317 76.9036 25.0228C74.0677 27.314 72.2017 31.0093 72.7242 34.5937L72.5003 45.1624C71.9778 53.0704 74.217 61.1633 78.7322 67.7041C80.0011 69.5517 81.4937 71.2886 83.4715 72.3972C85.8226 73.7276 88.6586 73.9863 91.3829 74.0231C94.443 74.0601 97.615 73.8014 100.376 72.434C102.615 71.3254 104.444 69.5517 106.198 67.7409C108.847 65.0435 111.46 62.1979 112.803 58.6875C114.781 53.5508 113.736 47.8231 114.557 42.3909C114.93 40.0259 115.639 37.698 115.975 35.3328C116.348 32.9679 116.348 30.455 115.341 28.2748Z" fill="#89796E"/>
<path d="M41.9338 402.989C36.5974 402.214 25.7381 402.103 20.3644 402.621C16.0729 405.391 11.4082 407.61 6.51965 409.199C5.10159 409.68 3.60887 410.085 2.52666 411.121C1.44445 412.117 0.92207 413.891 1.78036 415.111C2.56404 416.145 4.01936 416.368 5.32546 416.44C15.2519 417.181 30.6639 416.996 40.5532 415.85C41.1502 415.777 41.7847 415.702 42.2324 415.297C42.6056 414.999 42.7923 414.519 42.9414 414.076C44.1729 410.455 43.7997 406.352 41.9338 402.989Z" fill="#A58C41"/>
<path d="M104.444 403.904C104.444 403.904 87.203 404.534 85.4118 405.567C83.6204 406.603 81.7918 415.916 84.7026 417.245C87.6507 418.576 120.527 415.25 120.527 415.25C120.527 415.25 123.252 411.407 115.079 409.078C106.944 406.751 105.638 406.751 104.444 403.904Z" fill="#A58C41"/>
<path d="M115.04 139.038C108.248 139.481 101.419 139.407 94.6272 138.779C93.3585 143.065 92.0899 147.426 91.5673 151.86C91.3435 153.56 91.2689 155.297 91.7912 156.923C92.3137 158.549 93.5824 160.027 95.2616 160.36L99.18 162.688C103.434 157.662 109.256 154.151 114.294 149.865C117.764 146.908 120.861 143.583 123.959 140.257C121.421 138.557 118.1 138.816 115.04 139.038Z" fill="#CCCCCC"/>
<path d="M156.271 147.051C156.532 149.823 156.644 152.742 155.226 155.18C153.248 158.58 148.92 159.874 144.964 159.911C135.373 160.022 126.641 154.7 119.028 148.899C117.423 147.679 115.819 146.423 113.878 145.757C111.378 144.908 108.617 145.24 106.042 144.76C105.594 144.686 105.071 144.538 104.848 144.132C104.661 143.836 104.698 143.466 104.736 143.097C104.997 140.584 105.295 138.071 105.594 135.558C109.438 134.819 113.244 136.704 116.864 138.145C120.521 139.586 124.327 140.658 128.134 141.693C129.962 142.21 131.866 142.69 133.769 142.653C135.672 142.616 137.687 141.951 138.881 140.51C140.001 139.18 140.299 137.369 140.15 135.632C139.963 133.932 139.329 132.306 138.694 130.681C136.343 124.805 133.769 118.966 129.776 114.051C128.469 112.463 126.939 110.726 127.126 108.693C127.275 107.252 128.283 106.033 129.514 105.257C130.746 104.518 132.201 104.148 133.619 103.889C135.933 103.446 139.59 102.337 141.717 103.889C144.068 105.589 145.113 110.024 146.233 112.573C149.293 119.668 152.054 126.911 153.957 134.413C155.077 138.589 155.861 142.801 156.271 147.051Z" fill="#89796E"/>
<path d="M109.21 140.033C109.21 141.622 108.09 142.989 106.971 144.135C105.03 146.094 102.791 147.83 100.179 148.791C97.5669 149.752 94.544 149.789 92.1183 148.495C89.6927 147.202 88.0134 144.394 88.4612 141.696C88.8344 139.479 90.551 137.668 92.5289 136.597C94.5066 135.525 96.7831 135.081 99.0223 134.675C103.015 133.936 109.21 134.416 109.21 140.033Z" fill="#89796E"/>
<path d="M146.384 104.215C143.996 95.5309 137.391 88.6575 131.047 82.2275C125.748 76.8693 113.993 72.8783 109.701 81.932C106.268 89.2117 112.985 102.109 115.336 108.982C116.008 110.904 116.903 113.084 118.807 113.823C119.628 114.118 120.486 114.155 121.382 114.118C129.517 113.934 137.615 111.753 144.705 107.799C145.451 107.393 146.235 106.875 146.496 106.063C146.72 105.471 146.571 104.843 146.384 104.215Z" fill="#264C84"/>
<path d="M92.98 25.1033C93.8755 25.0294 94.5847 24.3642 95.1444 23.6621C95.8534 25.362 98.6522 25.5837 99.6224 23.9946C99.9956 25.2511 102.048 25.5466 102.757 24.4012C102.608 25.0662 103.28 25.7315 103.951 25.8053C104.623 25.9162 105.332 25.6207 105.966 25.3249C105.705 26.6553 107.534 27.801 108.653 26.9878C108.243 28.6877 109.661 30.5725 111.415 30.6093C110.37 32.2724 111.116 34.7482 112.908 35.5611C111.751 36.7436 111.825 38.9239 113.057 40.0325C111.974 40.8825 112.086 42.804 113.243 43.5061C112.721 44.0235 112.796 44.8365 112.908 45.5756C113.057 46.758 113.243 47.9775 113.392 49.16C112.497 49.6034 112.833 51.2292 113.803 51.3033C112.683 52.4117 112.683 54.3703 113.766 55.479C113.131 55.8855 112.646 56.5136 112.46 57.2159C112.46 57.8809 113.505 57.7701 114.064 57.4376C116.415 56.0332 118.766 54.5552 121.005 53.0032C121.565 52.6336 122.125 52.2271 122.423 51.599C122.722 51.0076 122.61 50.1576 122.05 49.8251C122.983 49.4555 123.954 49.0862 124.551 48.2731C125.148 47.4601 125.11 46.1298 124.252 45.6494C125.147 45.7973 126.006 45.169 126.528 44.4299C127.051 43.6908 127.312 42.804 127.76 42.0279C128.469 40.7346 129.626 39.1826 128.73 38.0001C129.029 37.4089 129.626 37.0393 130.148 36.5957C130.671 36.1894 131.193 35.6349 131.193 34.9699C131.193 34.3048 130.447 33.6395 129.887 34.0091C131.268 33.27 132.163 31.6809 132.089 30.1289C132.462 29.1681 132.798 28.2073 133.059 27.2097C132.686 27.0619 132.313 26.9508 131.902 26.8032C132.76 25.5096 133.507 23.5142 132.238 22.6275C133.544 22.3688 134.066 20.4471 133.059 19.5602C132.798 19.3385 132.499 19.1907 132.35 18.8951C131.939 18.2299 132.611 17.4539 132.76 16.7149C133.022 15.4954 131.604 14.2389 130.372 14.6824C130.745 13.0564 129.364 11.2457 127.685 11.1718C127.349 11.1718 126.976 11.2088 126.678 11.024C126.304 10.8023 126.192 10.3218 126.043 9.95232C125.633 8.95457 124.663 8.17856 123.58 7.99378C123.095 7.91987 122.573 7.9199 122.162 7.66121C121.714 7.32864 121.528 6.73744 121.155 6.33096C119.96 5.11148 117.61 6.44173 116.341 5.33312C115.781 4.85273 115.632 4.03978 114.997 3.6333C114.139 3.07899 112.945 3.70719 111.937 3.59632C110.556 3.4485 109.437 2.04436 108.093 2.30304C107.534 2.4139 107.086 2.78342 106.526 2.85731C105.556 2.96817 104.772 2.11822 103.951 1.56392C103.13 1.00962 101.637 1.00968 101.526 1.97047C100.481 0.159749 97.4207 -0.0250819 96.152 1.67478C96.3011 1.12048 95.1444 1.04661 95.1817 1.60091C94.2489 1.23138 93.2786 0.824844 92.271 0.861797C91.2633 0.861797 90.1812 1.3792 89.808 2.30304C88.6138 1.71178 87.0839 1.12054 86.0389 1.97047C85.6285 2.30305 85.4044 2.7834 84.9941 3.07904C84.1732 3.67027 83.0536 3.37463 82.0459 3.41159C81.0383 3.44854 79.8068 4.3354 80.2919 5.22228C79.359 5.03751 78.3516 4.88968 77.4559 5.22228C76.5602 5.55485 75.8886 6.62658 76.2618 7.4765C74.769 7.55041 73.5004 8.95466 73.5749 10.3958C73.5749 10.7284 73.6495 11.0979 73.5001 11.4305C73.3508 11.7631 72.9405 11.9109 72.642 12.1327C71.2986 12.9456 70.7761 14.7932 71.4477 16.1974C70.4774 16.4561 69.5072 16.7887 68.8356 17.4908C68.1637 18.193 67.9027 19.3755 68.4624 20.1515C68.6863 20.4471 68.9849 20.6688 69.0968 21.0384C69.2088 21.5187 68.8356 21.9622 68.5743 22.4426C68.0146 23.5142 68.425 25.0294 69.5074 25.6207C68.052 26.4336 67.716 28.6509 68.8356 29.9072C67.5667 31.5333 67.9773 33.8982 68.4998 35.8936C68.7982 37.0761 69.0968 38.2586 69.3581 39.4413C68.6863 40.328 68.9849 41.8062 69.9925 42.3605C69.2462 43.0257 69.5446 44.4669 70.4774 44.7994C70.5522 46.3885 71.1119 47.9405 72.045 49.2338C72.2688 49.7513 72.9778 49.123 73.1272 48.6056C73.8362 45.8711 74.5452 43.1734 75.2542 40.4389C75.6274 38.9607 76.0005 37.261 75.1048 36.0045C76.2618 35.2286 76.9708 33.8612 77.0453 32.4938C78.6874 32.9004 80.3667 30.9788 79.7322 29.4268C81.4489 29.7593 83.2027 28.0226 82.8669 26.3228C84.4342 26.877 86.3375 25.5837 86.4121 23.9576C86.8598 24.9924 88.8003 24.6229 88.8003 23.4772C88.8003 24.0316 90.7037 23.6621 90.9275 23.7729C91.7859 24.1795 91.7856 25.2141 92.98 25.1033Z" fill="#3E3E3E"/>
<path d="M98.8822 158.696C99.2925 160.026 99.4047 161.504 99.2554 162.908C74.9243 164.756 50.556 165.532 26.1877 165.199C24.2472 156.146 31.039 158.732 36.3754 159.139C43.4284 159.693 50.4814 160.026 57.5342 160.174C61.2662 160.211 98.6209 157.735 98.8822 158.696Z" fill="#F7F7F7"/>
<path d="M23.6158 95.833C49.2156 95.131 72.7627 94.8722 97.6535 92.4335C98.6986 113.127 100.527 140.436 98.1387 160.982C81.1221 162.94 62.0528 160.834 44.9614 161.906C40.7818 162.165 36.453 162.793 32.2734 162.608C28.0939 162.423 27.2728 159.134 26.7505 154.367C25.7055 144.649 26.0415 134.45 25.4444 124.657C25.2951 121.738 24.7352 95.9809 23.6158 95.833Z" fill="#E6E6E6"/>
<path d="M67.9778 134.825C64.8058 131.167 63.1266 125.883 61.3354 121.448C61.0368 120.709 60.0667 120.488 59.6188 121.226C56.8199 125.735 54.3197 130.391 52.0806 135.195C51.5581 136.267 53.2002 137.227 53.7227 136.156C58.2753 135.971 62.8279 136.082 67.3434 136.414C68.2017 136.488 68.463 135.38 67.9778 134.825ZM54.6556 134.271C56.3722 130.724 58.2379 127.25 60.2906 123.887C61.7086 127.509 63.164 131.315 65.3655 134.456C60.8503 134.086 57.8276 134.086 54.6556 134.271Z" fill="white"/>
<path d="M49.9519 163.822C51.1461 162.861 52.4149 161.752 52.7508 160.274C53.0866 158.796 52.4149 157.244 51.4447 156.098C50.4373 154.953 49.1684 154.103 47.9369 153.179C45.9964 151.701 44.2052 149.928 42.0034 148.893C39.8017 147.858 36.9283 147.71 35.0623 149.299C33.9056 150.297 33.3459 151.738 32.8979 153.179C31.8158 156.616 31.1439 160.201 30.9574 163.785C30.8829 165.152 30.8827 166.557 31.5171 167.739C32.2261 169.032 33.6069 169.845 35.0249 170.215C40.5107 171.619 45.9964 167.037 49.9519 163.822Z" fill="#89796E"/>
<path d="M389.629 420.486C397.902 420.59 407.336 420.248 412.635 414.573C413.865 413.239 414.822 411.601 414.617 409.89C414.207 406.199 409.182 404.627 405.08 404.011C381.118 400.456 356.608 401.824 332.372 403.259C317.229 404.148 301.915 405.037 287.49 409.173C279.97 411.325 273.988 416.933 283.491 419.394C292.686 421.787 306.769 419.495 316.443 419.599C340.816 419.873 365.223 420.18 389.629 420.486Z" fill="url(#paint2_linear_213_373)"/>
<path d="M389.64 420.486C397.912 420.59 407.346 420.248 412.645 414.573C413.875 413.239 414.832 411.601 414.627 409.89C414.217 406.199 409.192 404.627 405.09 404.011C381.128 400.456 356.618 401.824 332.383 403.259C317.239 404.148 301.925 405.037 287.5 409.173C279.98 411.325 273.998 416.933 283.501 419.394C292.696 421.787 306.779 419.495 316.453 419.599C340.826 419.873 365.233 420.18 389.64 420.486Z" fill="url(#paint3_linear_213_373)"/>
<path d="M316.16 403.663C318.177 403.663 320.228 403.697 322.245 403.697C322.587 403.697 322.963 403.697 323.236 403.457C323.475 403.218 323.544 402.876 323.612 402.534C323.886 400.416 324.159 398.261 324.467 396.143C324.433 396.416 317.664 395.22 316.844 395.902C315.237 397.134 316.126 401.885 316.16 403.663Z" fill="#F0E5D4"/>
<path d="M359.198 403.634C361.112 403.669 363.026 403.669 364.975 403.634C365.59 403.634 366.274 403.6 366.718 403.155C367.163 402.711 367.196 401.993 367.196 401.378C367.196 399.669 367.196 397.961 367.196 396.251C367.196 396.08 367.197 395.876 367.094 395.705C366.957 395.464 366.649 395.432 366.376 395.397C364.838 395.226 360.257 394.712 359.232 396.114C358.788 396.695 359.471 403.669 359.198 403.634Z" fill="#F0E5D4"/>
<path d="M363.776 107.839C369.963 100.25 375.672 108.625 377.894 115.94C386.85 145.441 389.687 177.094 392.456 208.406C392.9 213.43 393.345 218.423 393.789 223.447C395.396 241.496 396.968 259.579 398.575 277.627C398.677 278.687 380.765 283.233 379.227 283.712C369.861 286.48 360.153 286.652 350.616 286.001C338.686 285.182 326.824 283.097 314.826 283.233C309.733 283.302 304.537 283.747 299.58 282.31C301.631 271.781 301.836 260.945 302.315 250.212C303.409 224.301 305.938 198.459 308.433 172.65C309.835 158.157 310.69 143.355 312.467 128.998C313.458 121.136 316.638 107.394 323.44 103.908C330.687 100.216 334.139 109.856 339.985 112.317C346.65 115.154 354.855 115.598 361.007 110.642C362.17 109.753 362.99 108.762 363.776 107.839Z" fill="#3E3E3E"/>
<path d="M306.501 27.0693C306.876 25.6677 307.013 24.1637 306.911 22.7281C306.808 21.2924 306.227 19.6174 304.791 19.3439C303.39 19.0704 302.228 20.4035 301.544 21.6342C298.331 27.2744 297.51 33.9059 296.758 40.3323C298.98 41.016 301.305 41.3921 303.595 41.3579C303.595 38.6575 304.244 35.991 305.509 33.5983C306.877 31.0688 308.962 28.6418 308.756 25.7704C308.38 25.7362 308.004 25.702 307.594 25.6677C307.218 26.1121 306.876 26.5907 306.501 27.0693Z" fill="#E8DBCE"/>
<path d="M351.17 121.751C348.606 112.864 328.78 109.172 321.328 105.617C313.261 101.754 305.98 96.2164 300.1 89.4822C298.801 87.9782 297.537 86.3717 296.853 84.4916C295.007 79.3982 304.852 40.6001 303.997 40.3268L295.486 37.7972C291.452 49.1461 287.316 60.4948 283.385 71.8779C280.342 80.663 275.078 89.8242 276.753 99.4638C277.847 105.548 284.41 109.65 288.752 114.06C293.571 118.982 304.783 130.16 310.902 136.416L329.19 154.909C333.258 164.002 342.659 139.732 345.12 136.621C347.957 132.929 352.606 126.776 351.17 121.751Z" fill="#3E3E3E"/>
<path d="M317.586 313.769C318.817 288.37 316.218 262.425 316.458 236.891C315.637 228.038 316.97 219.012 320.32 210.672C320.526 210.159 320.765 209.612 321.175 209.235C322.474 208.006 324.662 208.654 326.337 209.305C342.642 215.561 361.922 214.091 376.791 205.238C379.731 209.407 380.585 214.535 381.303 219.456C382.465 227.455 383.765 235.421 384.072 243.453V243.487C384.141 245.198 384.175 246.941 384.141 248.649C383.936 258.666 381.85 268.509 380.244 278.355C379.184 284.78 378.261 291.277 378.159 297.771C378.09 303.104 377.27 305.053 376.552 312.607C375.287 325.733 374.467 340.055 373.134 353.183C371.698 367.232 370.297 381.315 369.134 395.399C369.1 395.945 369.031 396.526 368.997 397.072C368.245 397.278 356.623 399.773 356.623 396.936C355.7 369.59 354.743 342.244 353.82 314.896C353.444 303.377 353 291.721 349.889 280.748C348.59 280.885 347.325 280.987 346.026 281.123C338.95 317.29 336.25 353.319 329.174 389.485C328.558 392.663 327.807 396.116 325.551 398.167C323.295 400.218 314.68 399.843 313.997 396.663C315.979 369.076 316.219 341.423 317.586 313.769Z" fill="#363F4C"/>
<path d="M357.692 400.923C361.828 400.583 366.032 400.754 370.1 401.437C373.245 403.795 376.732 405.744 380.389 407.214C381.449 407.658 382.577 408.068 383.363 408.889C384.149 409.709 384.457 411.111 383.739 412C383.09 412.752 381.961 412.854 380.97 412.854C373.313 412.921 365.656 412.273 358.136 410.905C357.692 410.836 357.213 410.734 356.871 410.392C356.598 410.119 356.495 409.778 356.392 409.401C355.606 406.598 356.085 403.42 357.692 400.923Z" fill="#736357"/>
<path d="M325.799 401.143C321.629 401.074 317.493 401.484 313.425 402.407C310.417 404.937 307.067 407.089 303.512 408.8C302.487 409.279 301.393 409.756 300.675 410.644C299.957 411.533 299.718 412.936 300.504 413.79C301.188 414.507 302.316 414.542 303.307 414.475C310.964 414.098 318.553 412.97 326.005 411.158C326.449 411.056 326.928 410.92 327.235 410.577C327.475 410.304 327.577 409.927 327.645 409.587C328.226 406.68 327.543 403.534 325.799 401.143Z" fill="#736357"/>
<path d="M347.504 103.715C350.957 103.68 354.136 101.698 356.528 99.2026C365.45 89.9731 365.177 75.4793 364.322 62.6607C364.22 61.2934 364.117 59.8577 363.331 58.7296C362.135 56.9863 359.81 56.5419 357.725 56.3026C348.803 56.3026 340.018 56.7128 331.028 57.1571C330.276 57.1914 329.455 57.2597 328.874 57.704C328.225 58.2169 328.02 59.0372 327.883 59.8234C327.267 63.5153 328.464 67.3779 328.396 71.1381C328.327 75.0009 328.498 78.8978 329.182 82.692C330.481 90.1099 333.899 97.0148 340.326 101.219C342.479 102.655 344.941 103.715 347.504 103.715Z" fill="#F0E5D4"/>
<path d="M384.869 218.841C385.108 218.808 385.211 218.704 385.074 218.466C384.151 217.063 382.681 214.533 381.177 211.527C380.049 196.69 378.271 181.821 375.229 167.19C371.435 149.176 363.299 132.46 358.445 114.719C357.009 109.523 354.616 109.489 347.95 109.762C345.284 109.626 344.156 109.968 343.951 110.002C339.644 109.762 341.114 110.514 337.593 109.455C333.696 108.258 329.628 111.335 329.628 114.582C329.628 118.035 329.56 121.487 329.458 124.974C322.655 153.175 318.553 181.821 317.288 210.603C317.288 210.638 317.288 210.67 317.288 210.705C316.912 212.175 316.536 213.645 316.126 215.149C315.272 217.371 314.349 219.901 314.246 221.884C314.178 222.088 314.143 222.259 314.075 222.465C313.357 224.995 315.032 227.182 317.801 228.036C339.097 234.635 361.897 233.575 382.305 225.335C382.578 225.233 382.852 225.097 383.057 224.96C383.228 224.891 383.399 224.823 383.604 224.754C383.911 224.55 384.253 224.344 384.561 224.141C385.279 223.525 385.723 222.703 385.86 221.849C386.031 220.891 385.689 219.697 384.869 218.841Z" fill="#264C84"/>
<path d="M339.579 19.0671C337.118 19.0671 334.691 19.0671 332.229 18.7595C331.204 18.6227 331.101 20.0926 332.059 20.2977C334.451 20.8447 336.844 21.4257 339.271 21.7676C341.049 22.0069 341.288 19.0671 339.579 19.0671Z" fill="#3E3E3E"/>
<path d="M324.806 1.29492C324.498 2.32042 324.498 3.41423 324.464 4.43971C324.43 5.56777 324.191 6.83261 324.498 7.92649C324.635 8.47342 325.455 8.88354 325.831 8.26823C326.378 7.3111 326.481 6.1831 326.72 5.12343C326.959 3.96119 327.301 2.76476 327.233 1.56834C327.165 0.30356 325.148 0.0985052 324.806 1.29492Z" fill="#3E3E3E"/>
<path d="M335.787 6.32011C334.625 6.9696 333.633 7.85833 332.608 8.74709C331.719 9.5333 330.762 10.2512 330.215 11.3108C329.941 11.7894 330.488 12.4047 331.001 12.3022C332.027 12.0971 332.881 11.4817 333.736 10.9348C334.898 10.1827 336.163 9.4991 337.12 8.5078C338.077 7.55066 337.188 5.56809 335.787 6.32011Z" fill="#3E3E3E"/>
<path d="M403.533 126.578C400.661 123.262 373.896 98.8208 365.999 112.084C362.342 118.271 370.17 123.399 374.169 127.432C380.356 133.653 386.578 139.875 392.765 146.096C399.192 152.557 405.652 159.018 410.403 166.162C416.249 174.913 419.496 184.621 419.975 194.807C420.043 196.175 420.078 197.576 421 198.704C421.958 199.832 424.077 200.55 426.367 200.072C430.127 199.251 431.427 196.243 431.666 193.953C434.332 168.794 420.692 146.541 403.533 126.578Z" fill="#3E3E3E"/>
<path d="M421.788 200.343C421.48 202.086 420.318 203.796 420.934 205.47C421.275 206.428 422.198 207.181 422.335 208.171C422.437 208.854 422.13 209.504 422.198 210.187C422.267 211.041 422.916 211.761 423.668 212.171C424.42 212.58 425.309 212.682 426.163 212.682C427.052 212.717 427.975 212.65 428.693 212.171C429.377 211.726 429.787 211.009 430.094 210.257C430.744 208.616 430.778 206.769 430.505 205.026C430.231 203.283 429.65 201.608 429.069 199.933C428.898 199.488 428.727 199.01 428.351 198.702C428.043 198.463 427.633 198.394 427.223 198.326C425.993 198.155 424.694 198.189 423.463 198.36C421.891 198.634 422.027 198.907 421.788 200.343Z" fill="#F0E5D4"/>
<path d="M311.611 13.768C312.329 12.1955 313.115 10.4521 314.483 9.56336C316.055 8.50369 317.799 8.94807 319.268 9.56336C320.943 10.2812 322.55 11.1358 324.054 12.1613C324.703 12.6057 326.242 13.597 326.481 14.4174C326.823 15.6139 325.934 16.8786 325.285 18.1434C321.251 25.6294 318.174 32.0218 314.141 38.6876C313.594 39.6106 312.91 40.6359 311.987 40.9095C311.406 41.0803 310.859 40.9095 310.346 40.7384C307.612 39.7129 299.237 36.8075 301.801 31.851C304.98 25.7322 308.74 20.0918 311.611 13.768Z" fill="#3D3D3D"/>
<path d="M313.156 12.7442C313.498 12.1973 313.908 11.6163 314.455 11.3428C315.07 11.0352 315.72 11.2402 316.267 11.4453C318.591 12.3341 320.813 13.5305 323.001 14.6927C323.342 14.8636 324.231 15.3422 324.402 15.7524C324.539 15.9916 324.778 16.436 324.778 16.7437C324.778 17.8034 323.924 18.6922 323.514 19.7519C323.137 20.709 322.454 21.4952 322.009 22.4182C321.531 23.4095 320.95 24.4008 320.403 25.3579C319.616 26.7935 318.83 28.2635 318.112 29.7674C317.6 30.8272 317.019 31.8868 316.574 32.9808C316.369 33.4935 316.061 34.0064 315.651 34.314C315.07 34.7924 314.489 34.7582 313.908 34.5531C312.78 34.1772 311.72 33.5961 310.694 33.0149C309.156 32.1604 307.618 31.3059 306.046 30.4511C305.499 30.1435 304.234 29.6991 304.473 28.7078C304.576 28.1609 305.123 27.5115 305.396 27.0329C305.772 26.3834 306.148 25.6997 306.49 25.0503C307.926 22.418 309.225 19.7176 310.66 17.0513C311.447 15.5815 312.267 14.1457 313.156 12.7442Z" fill="white"/>
<path d="M322.18 12.7051C322.043 12.5684 321.838 12.4658 321.667 12.3633C321.257 12.1582 320.812 11.9189 320.402 11.7138C320.163 11.5771 319.821 11.4403 319.718 11.577C319.65 11.6454 319.684 11.748 319.752 11.8163C319.992 12.2265 322.008 13.423 322.35 13.1153C322.384 13.0128 322.316 12.8419 322.18 12.7051Z" fill="#5E625E"/>
<path d="M319.508 11.3434C319.508 11.2408 319.406 11.1382 319.303 11.1382C319.201 11.1382 319.098 11.2066 318.995 11.3092C318.927 11.3775 318.893 11.4459 318.893 11.5485C318.893 11.7194 319.064 11.8219 319.201 11.7877C319.337 11.7535 319.474 11.5826 319.508 11.4117V11.3434Z" fill="#5E625E"/>
<path d="M307.782 34.1785C307.474 34.247 307.201 34.4521 306.996 34.7254C306.893 34.8622 306.79 34.999 306.722 35.1358C306.551 35.5117 306.62 35.9218 306.791 36.2637C306.962 36.5713 307.303 36.8106 307.611 36.9131C307.714 36.9474 307.782 36.9816 307.884 36.9473C307.987 36.9473 308.089 36.8791 308.192 36.8106C308.568 36.5713 308.876 36.1611 308.978 35.7167C309.217 34.9305 308.602 33.9735 307.782 34.1785Z" fill="#EBEFEB"/>
<path d="M367.398 54.2857C367.056 52.4397 366.578 50.5938 365.484 49.0897C364.253 47.3464 362.271 46.2526 360.22 45.6374C358.169 45.0562 356.015 44.9194 353.896 44.8509C344.735 44.5776 335.129 45.3978 327.335 50.252C326.857 50.5596 326.378 50.8672 326.037 51.3116C325.66 51.756 325.455 52.3371 325.25 52.884C324.293 55.4821 323.302 58.1141 323.131 60.8829C322.994 62.934 323.268 65.0191 323.575 67.0702C323.986 69.8048 324.43 72.5054 325.148 75.1717C326.378 79.8205 328.429 84.2644 330.993 88.3321C329.352 84.6745 329.592 80.5042 329.968 76.5048C330.139 74.4537 330.343 72.4369 330.548 70.386C330.754 68.3007 331.061 66.0104 332.599 64.609C334.001 63.2759 336.086 63.0366 338.001 63.0023C339.915 62.9681 341.931 63.1048 343.675 62.3529L344.222 60.1652C344.153 61.4298 344.837 62.6605 345.828 63.4809C346.82 64.3014 348.016 64.7458 349.247 65.0876C350.58 65.4635 351.947 65.7369 353.315 65.6344C354.648 65.5318 355.947 65.0534 357.28 64.9166C358.613 64.7798 360.117 64.9849 360.972 66.0105C361.792 66.9675 361.826 68.3349 361.86 69.5998C361.963 73.1548 362.305 76.6756 362.852 80.1622C363.057 79.7863 363.296 79.4104 363.501 79.0686C364.493 80.0599 363.809 81.6664 363.364 82.9653C362.852 84.4009 362.715 85.9734 362.92 87.4776C364.356 83.7515 365.791 80.0256 366.783 76.1287C368.56 68.9843 368.8 61.4983 367.398 54.2857Z" fill="#736357"/>
</g>
<defs>
<linearGradient id="paint0_linear_213_373" x1="0.39323" y1="415.786" x2="134.502" y2="415.786" gradientUnits="userSpaceOnUse">
<stop stop-color="#4D4D4D"/>
<stop offset="1"/>
</linearGradient>
<linearGradient id="paint1_linear_213_373" x1="0.40409" y1="415.786" x2="134.512" y2="415.786" gradientUnits="userSpaceOnUse">
<stop/>
<stop offset="1"/>
</linearGradient>
<linearGradient id="paint2_linear_213_373" x1="278.574" y1="411.126" x2="414.638" y2="411.126" gradientUnits="userSpaceOnUse">
<stop stop-color="#4D4D4D"/>
<stop offset="1"/>
</linearGradient>
<linearGradient id="paint3_linear_213_373" x1="278.584" y1="411.126" x2="414.648" y2="411.126" gradientUnits="userSpaceOnUse">
<stop/>
<stop offset="1"/>
</linearGradient>
<clipPath id="clip0_213_373">
<rect width="431.605" height="420" fill="white" transform="translate(0.395142 0.5)"/>
</clipPath>
</defs>
</svg>
