<svg width="51" height="50" viewBox="0 0 51 50" fill="none" xmlns="http://www.w3.org/2000/svg">
<g id="Logo">
<path id="Vector" d="M25.5 1.19043C19.0386 1.19043 18.2261 1.22019 15.6875 1.33329C13.1488 1.45233 11.4196 1.85114 9.90472 2.44043C8.31572 3.0381 6.87641 3.97562 5.68745 5.18745C4.47638 6.37703 3.53895 7.81614 2.94043 9.40472C2.35114 10.9166 1.94936 12.6488 1.83329 15.1785C1.72019 17.7232 1.69043 18.5327 1.69043 25.003C1.69043 31.4673 1.72019 32.2769 1.83329 34.8154C1.95233 37.3511 2.35114 39.0802 2.94043 40.5952C3.55055 42.1607 4.36305 43.488 5.68745 44.8123C7.00888 46.1369 8.33626 46.9523 9.90174 47.5595C11.4196 48.1488 13.1458 48.5504 15.6815 48.6666C18.2232 48.7797 19.0327 48.8095 25.5 48.8095C31.9673 48.8095 32.7738 48.7797 35.3154 48.6666C37.8483 48.5476 39.5833 48.1488 41.0983 47.5595C42.6861 46.9616 44.1245 46.024 45.3123 44.8123C46.6369 43.488 47.4495 42.1607 48.0595 40.5952C48.6459 39.0802 49.0476 37.3511 49.1666 34.8154C49.2797 32.2769 49.3095 31.4673 49.3095 25C49.3095 18.5327 49.2797 17.7232 49.1666 15.1815C49.0476 12.6488 48.6459 10.9166 48.0595 9.40472C47.4611 7.8161 46.5235 6.37695 45.3123 5.18745C44.1238 3.97517 42.6845 3.0376 41.0952 2.44043C39.5773 1.85114 37.8452 1.44936 35.3126 1.33329C32.7709 1.22019 31.9642 1.19043 25.494 1.19043H25.503H25.5ZM23.366 5.4821H25.503C31.8602 5.4821 32.613 5.50293 35.1221 5.619C37.4433 5.72317 38.7052 6.11305 39.5447 6.43745C40.6547 6.869 41.4492 7.38686 42.2826 8.22019C43.1161 9.05352 43.6309 9.84519 44.0626 10.9583C44.39 11.7946 44.7769 13.0565 44.8809 15.3779C44.9969 17.8869 45.0207 18.6398 45.0207 24.994C45.0207 31.3483 44.9969 32.104 44.8809 34.613C44.7769 36.9345 44.3869 38.1935 44.0626 39.0328C43.6807 40.0664 43.0714 41.0011 42.2797 41.7678C41.4464 42.6011 40.6547 43.1161 39.5416 43.5476C38.7083 43.875 37.4464 44.2619 35.1221 44.369C32.613 44.4821 31.8602 44.509 25.503 44.509C19.1458 44.509 18.3898 44.4821 15.8809 44.369C13.5595 44.2619 12.3005 43.875 11.4613 43.5476C10.427 43.1664 9.49141 42.5583 8.72317 41.7678C7.93076 41 7.32055 40.0645 6.93745 39.0297C6.61305 38.1933 6.22317 36.9316 6.119 34.6102C6.00591 32.1011 5.9821 31.3483 5.9821 24.988C5.9821 18.6309 6.00591 17.8809 6.119 15.372C6.22614 13.0505 6.61305 11.7886 6.94043 10.9494C7.37198 9.83924 7.88983 9.0446 8.72317 8.21126C9.5565 7.37793 10.3482 6.86305 11.4613 6.4315C12.3005 6.10412 13.5595 5.71722 15.8809 5.61007C18.0773 5.50888 18.9285 5.47912 23.366 5.47614V5.4821ZM38.2111 9.43448C37.8361 9.43448 37.4645 9.50838 37.1178 9.65195C36.7711 9.79555 36.4564 10.006 36.1909 10.2713C35.9257 10.5366 35.7152 10.8516 35.5716 11.1982C35.428 11.5449 35.3542 11.9164 35.3542 12.2916C35.3542 12.6668 35.428 13.0384 35.5716 13.385C35.7152 13.7316 35.9257 14.0466 36.1909 14.3119C36.4564 14.5772 36.7711 14.7877 37.1178 14.9313C37.4645 15.0749 37.8361 15.1488 38.2111 15.1488C38.969 15.1488 39.6957 14.8477 40.2316 14.3119C40.7673 13.7761 41.0683 13.0494 41.0683 12.2916C41.0683 11.5339 40.7673 10.8071 40.2316 10.2713C39.6957 9.7355 38.969 9.43448 38.2111 9.43448ZM25.503 12.7738C23.8811 12.7485 22.2705 13.046 20.7648 13.6492C19.2591 14.2523 17.8884 15.149 16.7325 16.2869C15.5767 17.4249 14.6588 18.7814 14.0322 20.2775C13.4057 21.7736 13.083 23.3794 13.083 25.0014C13.083 26.6235 13.4057 28.2292 14.0322 29.7254C14.6588 31.2214 15.5767 32.578 16.7325 33.7159C17.8884 34.854 19.2591 35.7507 20.7648 36.3538C22.2705 36.9569 23.8811 37.2545 25.503 37.2292C28.7128 37.179 31.7745 35.8688 34.0266 33.5811C36.279 31.2933 37.5414 28.2119 37.5414 25.0014C37.5414 21.7911 36.279 18.7095 34.0266 16.4218C31.7745 14.1341 28.7128 12.8238 25.503 12.7738ZM25.503 17.0625C27.608 17.0625 29.6271 17.8987 31.1157 19.3873C32.6042 20.8759 33.4404 22.8948 33.4404 25C33.4404 27.1052 32.6042 29.124 31.1157 30.6126C29.6271 32.1011 27.608 32.9373 25.503 32.9373C23.3978 32.9373 21.3788 32.1011 19.8903 30.6126C18.4017 29.124 17.5654 27.1052 17.5654 25C17.5654 22.8948 18.4017 20.8759 19.8903 19.3873C21.3788 17.8987 23.3978 17.0625 25.503 17.0625Z" fill="white"/>
</g>
</svg>
