<svg width="51" height="50" viewBox="0 0 51 50" fill="none" xmlns="http://www.w3.org/2000/svg">
<g id="Logo">
<path id="Vector" d="M42.1695 8.11319C39.9864 5.90986 37.3866 4.16302 34.5216 2.97452C31.6566 1.78601 28.5838 1.17958 25.4821 1.19058C12.4851 1.19058 1.89281 11.7799 1.88091 24.78C1.88091 28.9435 2.97019 32.9942 5.02674 36.5804L1.69043 48.8097L14.2023 45.53C17.6637 47.4135 21.5414 48.4009 25.4821 48.4019H25.494C38.494 48.4019 49.0833 37.8126 49.0952 24.8007C49.098 21.6996 48.4876 18.6286 47.2983 15.7646C46.1092 12.9006 44.368 10.3002 42.1695 8.11319ZM25.4821 44.4078C21.9672 44.409 18.5169 43.4633 15.494 41.6697L14.7797 41.2411L7.3571 43.1876L9.33924 35.9466L8.87495 35.1995C6.9101 32.0754 5.87093 28.4585 5.87793 24.768C5.87793 13.9763 14.6785 5.17271 25.494 5.17271C28.0707 5.1681 30.6226 5.67352 33.003 6.6599C35.3833 7.64626 37.545 9.09402 39.363 10.9197C41.1876 12.7383 42.634 14.9002 43.6188 17.2805C44.6035 19.6609 45.1073 22.2127 45.1011 24.7888C45.0892 35.6192 36.2885 44.4078 25.4821 44.4078ZM36.2411 29.7233C35.6547 29.4288 32.7588 28.003 32.2142 27.8007C31.6726 27.6073 31.2766 27.5061 30.89 28.0954C30.494 28.6816 29.363 30.018 29.0238 30.4019C28.6845 30.7978 28.3333 30.8423 27.744 30.5507C27.1576 30.253 25.2559 29.634 23.0059 27.6192C21.25 26.0566 20.0744 24.1221 19.7232 23.5358C19.3839 22.9465 19.6904 22.6311 19.9851 22.3364C20.244 22.0745 20.5714 21.6459 20.866 21.3066C21.1636 20.9674 21.2619 20.7174 21.4553 20.3245C21.6488 19.9257 21.5565 19.5864 21.4107 19.2918C21.2619 18.9971 20.0863 16.0894 19.5892 14.9168C19.113 13.759 18.6279 13.9197 18.2648 13.9049C17.9255 13.884 17.5297 13.884 17.1339 13.884C16.835 13.8915 16.5408 13.9606 16.2699 14.0871C15.999 14.2136 15.7571 14.3947 15.5595 14.6191C15.0178 15.2084 13.5029 16.634 13.5029 19.5418C13.5029 22.4495 15.616 25.2442 15.9136 25.64C16.2053 26.0359 20.0625 31.9852 25.9821 34.5447C27.3809 35.155 28.4821 35.515 29.3423 35.7888C30.7559 36.2411 32.0326 36.1728 33.0504 36.0269C34.1814 35.8542 36.5357 34.5983 37.0328 33.2204C37.5207 31.8395 37.5209 30.6609 37.3719 30.4138C37.2261 30.1638 36.8302 30.018 36.2411 29.7233Z" fill="white"/>
</g>
</svg>
